<svg xmlns="http://www.w3.org/2000/svg" width="35" height="24" viewBox="0 0 35 24">
  <path id="Icon_Update" data-name="Icon/Update" d="M9.75,4a5.483,5.483,0,0,1,5.568,5.25A5.483,5.483,0,0,1,9.75,14.5,5.483,5.483,0,0,1,4.182,9.25,5.483,5.483,0,0,1,9.75,4ZM1,28H18.5a62.134,62.134,0,0,0-2.545-12H3.545A62.133,62.133,0,0,0,1,28ZM28.045,13a7.662,7.662,0,0,0-7.955,7.5V28h7.955A7.662,7.662,0,0,0,36,20.5,7.662,7.662,0,0,0,28.045,13ZM26.614,24.85,23.273,21.7l1.273-1.2,2.227,2.1L31.7,17.95,32.818,19Z" transform="translate(-1 -4)" fill="#fff"/>
</svg>
