<svg id="Icon_PolicyNote" data-name="Icon/PolicyNote" xmlns="http://www.w3.org/2000/svg" width="20" height="20" viewBox="0 0 20 20">
  <rect id="Mask" width="20" height="20" fill="none"/>
  <path id="Icon_PolicyNote-2" data-name="Icon/PolicyNote" d="M14.05,12.176V3H4V13.4a1.742,1.742,0,0,0,1.7,1.835h.155A1.807,1.807,0,0,0,7.71,13.476v-1.3ZM6.318,5.294h5.412V6.365H6.318Zm0,3.824V8.047h5.412V9.118Zm11.6,4.588H10.184v.382A2.011,2.011,0,0,1,9.1,15.694H9.024A1,1,0,0,1,8.251,16h7.887a1.5,1.5,0,0,0,.928-.306,1.86,1.86,0,0,0,.928-1.606v-.382" transform="translate(-0.994 0.5)" fill="#007abc"/>
</svg>
