<svg id="Group_36895" data-name="Group 36895" xmlns="http://www.w3.org/2000/svg" xmlns:xlink="http://www.w3.org/1999/xlink" width="139.737" height="30" viewBox="0 0 139.737 30">
  <defs>
    <clipPath id="clip-path">
      <rect id="Rectangle_13121" data-name="Rectangle 13121" width="139.737" height="30" fill="none"/>
    </clipPath>
  </defs>
  <g id="Group_36892" data-name="Group 36892">
    <g id="Group_36891" data-name="Group 36891" clip-path="url(#clip-path)">
      <path id="Path_46717" data-name="Path 46717" d="M27.053,25.736A26.806,26.806,0,0,1,26.711,30H36.44a1.534,1.534,0,0,0,1.532-1.538V1.541A1.529,1.529,0,0,0,36.449,0a1.507,1.507,0,0,0-.389.048A26.5,26.5,0,0,0,21.7,9.722a26.491,26.491,0,0,1,5.355,16.014" transform="translate(-5.424 -0.001)" fill="#a3cd4d"/>
      <path id="Path_46718" data-name="Path 46718" d="M11.26,30a26.874,26.874,0,0,1-.34-4.263A26.5,26.5,0,0,1,16.273,9.722,26.5,26.5,0,0,0,1.911.052,1.53,1.53,0,0,0,0,1.541V28.463A1.534,1.534,0,0,0,1.531,30Z" transform="translate(0 -0.001)" fill="#0090da"/>
      <path id="Path_46719" data-name="Path 46719" d="M14.56,28.976a26.892,26.892,0,0,0,.34,4.264H24.926a26.892,26.892,0,0,0,.34-4.264,26.491,26.491,0,0,0-5.354-16.014A26.5,26.5,0,0,0,14.56,28.976" transform="translate(-3.64 -3.24)" fill="#0060a0"/>
      <path id="Path_46720" data-name="Path 46720" d="M144.2,8.846a2.422,2.422,0,0,1,2.409-2.411,2.382,2.382,0,0,1,2.408,2.357v.054a2.408,2.408,0,1,1-4.816,0" transform="translate(-36.05 -1.609)" fill="#fff"/>
      <path id="Path_46721" data-name="Path 46721" d="M57.731,7.148h4.242l5.163,9.3,5.043-9.3h4.272l.92,19.8H72.89L72.326,14l-4.094,7.726H65.92L61.588,14.1l-.5,12.852H56.812Z" transform="translate(-14.203 -1.787)" fill="#fff"/>
      <path id="Path_46722" data-name="Path 46722" d="M94.288,29.231a8.861,8.861,0,0,1-3.2-.55,6.977,6.977,0,0,1-2.414-1.528,6.473,6.473,0,0,1-1.513-2.361,8.611,8.611,0,0,1-.519-3.043,8.212,8.212,0,0,1,.489-2.806,7.068,7.068,0,0,1,1.408-2.361,6.9,6.9,0,0,1,2.255-1.617,7.258,7.258,0,0,1,3.027-.609,6.993,6.993,0,0,1,2.965.6A6.111,6.111,0,0,1,98.938,16.6a7.182,7.182,0,0,1,1.32,2.523,11.15,11.15,0,0,1,.45,3.222v.713H90.79a2.667,2.667,0,0,0,.994,1.974,3.9,3.9,0,0,0,2.654.846,6.384,6.384,0,0,0,2.7-.489,9.45,9.45,0,0,0,1.515-.846l1.751,2.7c-.159.1-.4.264-.713.489a6.625,6.625,0,0,1-1.231.667,11.388,11.388,0,0,1-1.8.579,10.172,10.172,0,0,1-2.371.257m-.5-11.55a3.182,3.182,0,0,0-1.3.252,2.977,2.977,0,0,0-.935.638,2.778,2.778,0,0,0-.564.848,2.326,2.326,0,0,0-.194.9h5.879a2.518,2.518,0,0,0-.179-.9,2.663,2.663,0,0,0-.534-.848,2.872,2.872,0,0,0-.89-.638,2.977,2.977,0,0,0-1.276-.253Z" transform="translate(-21.659 -3.588)" fill="#fff"/>
      <path id="Path_46723" data-name="Path 46723" d="M124.712,7.148h4.48V23.286h8.536v3.661H124.712Z" transform="translate(-31.178 -1.787)" fill="#fff"/>
    </g>
  </g>
  <g id="Group_36894" data-name="Group 36894">
    <g id="Group_36893" data-name="Group 36893" clip-path="url(#clip-path)">
      <rect id="Rectangle_13122" data-name="Rectangle 13122" width="4.272" height="13.926" transform="translate(108.423 11.24)" fill="#fff"/>
      <path id="Path_46724" data-name="Path 46724" d="M155.392,16.206h-2.25V12.85h2.25v-.714a6.1,6.1,0,0,1,.489-2.55,5.146,5.146,0,0,1,1.3-1.768A5.315,5.315,0,0,1,159,6.778a6.564,6.564,0,0,1,2.091-.342,8.375,8.375,0,0,1,2.285.327,5.582,5.582,0,0,1,2.1,1.128q-.45.684-.9,1.35t-.9,1.35a3.527,3.527,0,0,0-.98-.5,3.436,3.436,0,0,0-1.1-.178,1.869,1.869,0,0,0-1.423.564,2.241,2.241,0,0,0-.534,1.6v.773h3.3v3.357h-3.3v10.57h-4.249Z" transform="translate(-38.285 -1.609)" fill="#fff"/>
      <path id="Path_46725" data-name="Path 46725" d="M174.96,29.231a8.861,8.861,0,0,1-3.2-.55,6.977,6.977,0,0,1-2.414-1.528,6.474,6.474,0,0,1-1.514-2.361,8.612,8.612,0,0,1-.519-3.043,8.212,8.212,0,0,1,.489-2.806,7.059,7.059,0,0,1,1.41-2.361,6.868,6.868,0,0,1,2.253-1.617,7.259,7.259,0,0,1,3.027-.609,6.993,6.993,0,0,1,2.965.6A6.111,6.111,0,0,1,179.61,16.6a7.163,7.163,0,0,1,1.32,2.523,11.151,11.151,0,0,1,.45,3.222v.713h-9.918a2.667,2.667,0,0,0,.995,1.974,3.9,3.9,0,0,0,2.654.846,6.4,6.4,0,0,0,2.7-.489,9.45,9.45,0,0,0,1.515-.846l1.751,2.7c-.159.1-.4.264-.713.489a6.626,6.626,0,0,1-1.232.667,11.31,11.31,0,0,1-1.8.579,10.172,10.172,0,0,1-2.371.257m-.5-11.55a3.182,3.182,0,0,0-1.3.252,2.977,2.977,0,0,0-.935.638,2.777,2.777,0,0,0-.564.848,2.325,2.325,0,0,0-.194.9h5.878a2.518,2.518,0,0,0-.178-.9,2.663,2.663,0,0,0-.534-.848,2.872,2.872,0,0,0-.889-.638,2.977,2.977,0,0,0-1.277-.253Z" transform="translate(-41.827 -3.588)" fill="#fff"/>
      <path id="Path_46726" data-name="Path 46726" d="M116.9,23.962a5.633,5.633,0,0,1-.89.519,2.622,2.622,0,0,1-1.127.223,1.454,1.454,0,0,1-1.26-.549,2.608,2.608,0,0,1-.4-1.56V17.1h3.588V13.744h-3.589V10.012h-4.272v3.732h-2.2V17.1h2.2v5.25a9.785,9.785,0,0,0,.267,2.376,4.576,4.576,0,0,0,.889,1.827,4.209,4.209,0,0,0,1.632,1.188,6.355,6.355,0,0,0,2.491.43,6.908,6.908,0,0,0,4.391-1.6Z" transform="translate(-26.688 -2.503)" fill="#fff"/>
    </g>
  </g>
</svg>
